<?xml version="1.0" standalone="no"?>
<!DOCTYPE svg PUBLIC "-//W3C//DTD SVG 20010904//EN"
 "http://www.w3.org/TR/2001/REC-SVG-20010904/DTD/svg10.dtd">
<svg version="1.0" xmlns="http://www.w3.org/2000/svg"
 width="1024.000000pt" height="1024.000000pt" viewBox="0 0 1024.000000 1024.000000"
 preserveAspectRatio="xMidYMid meet">

<g transform="translate(0.000000,1024.000000) scale(0.100000,-0.100000)"
fill="#000000" stroke="none">
<path d="M5000 8988 c-485 -22 -1015 -157 -1530 -388 -183 -82 -472 -241 -501
-276 -28 -33 6 -24 83 23 417 254 1026 482 1508 562 404 68 917 70 1293 6 438
-75 1032 -324 1485 -622 458 -301 890 -813 1186 -1403 308 -616 466 -1342 427
-1972 -43 -697 -233 -1294 -594 -1863 -259 -409 -652 -821 -1002 -1050 -442
-290 -973 -504 -1450 -584 -235 -40 -324 -46 -660 -46 -359 0 -470 8 -755 56
-618 104 -1086 290 -1535 609 -530 377 -950 824 -1255 1337 -316 528 -439 981
-445 1628 -2 243 9 389 49 644 59 378 178 788 306 1058 69 146 133 243 212
325 32 33 58 62 58 64 0 2 -10 4 -22 4 -29 0 -116 -92 -180 -189 -235 -359
-437 -1134 -463 -1776 -9 -226 18 -548 69 -825 92 -496 407 -1081 862 -1600
274 -313 720 -677 1093 -893 375 -217 911 -382 1471 -453 202 -25 746 -31 945
-9 463 49 831 156 1260 365 414 202 653 369 934 651 433 436 760 956 942 1501
134 401 211 891 203 1293 -4 175 -10 250 -40 465 -112 813 -480 1596 -1036
2208 -175 192 -352 344 -553 477 -396 259 -903 488 -1298 584 -327 80 -665
108 -1067 89z"/>
<path d="M5008 8805 c-2 -1 -48 -5 -103 -9 -487 -30 -1047 -166 -1522 -371
-188 -81 -389 -198 -548 -318 -87 -66 -301 -255 -350 -309 -16 -19 -71 -78
-120 -133 -340 -375 -593 -787 -751 -1222 -229 -633 -278 -1123 -179 -1818 29
-200 77 -400 139 -580 218 -632 459 -1011 931 -1466 335 -322 631 -535 994
-713 570 -280 1126 -401 1756 -383 737 22 1355 194 1920 536 221 134 361 245
645 512 189 178 333 337 462 510 160 215 295 440 282 473 -4 12 -29 -21 -83
-111 -207 -348 -424 -608 -761 -916 -279 -255 -405 -349 -655 -492 -510 -292
-1056 -443 -1720 -476 -497 -24 -930 34 -1372 185 -601 206 -1053 501 -1553
1012 -384 393 -587 723 -791 1284 -95 260 -145 491 -184 840 -24 225 -25 631
-1 756 2 11 7 47 11 79 49 405 242 958 454 1300 28 44 67 109 87 145 129 224
447 604 681 811 368 327 794 540 1383 693 380 98 658 139 1040 152 400 13 759
-28 1097 -127 513 -150 874 -353 1293 -726 773 -690 1227 -1525 1311 -2413 11
-125 14 -501 4 -627 -69 -880 -320 -1457 -880 -2032 -343 -352 -851 -720
-1216 -882 -554 -246 -1053 -353 -1558 -336 -708 25 -1472 243 -1956 558 -168
109 -284 207 -468 393 -298 302 -460 523 -618 844 -50 101 -89 186 -86 188 2
3 18 -19 35 -48 42 -75 193 -288 270 -383 363 -444 910 -857 1442 -1088 424
-184 806 -270 1370 -308 846 -57 1565 213 2296 862 144 129 262 255 414 444
286 357 413 601 565 1084 133 425 183 747 172 1101 -11 333 -59 553 -203 937
-172 456 -345 765 -628 1118 -97 120 -309 335 -426 432 -543 446 -1018 688
-1577 803 -224 46 -283 52 -595 57 -302 5 -365 2 -353 -17 4 -6 110 -10 268
-10 261 0 421 -12 589 -45 593 -114 1026 -322 1568 -754 439 -349 789 -812
1020 -1349 240 -556 309 -870 297 -1342 -8 -335 -60 -599 -202 -1024 -141
-427 -261 -644 -553 -1006 -202 -251 -504 -532 -769 -717 -553 -385 -1151
-572 -1753 -549 -91 4 -187 9 -215 11 -272 26 -349 36 -485 61 -563 104 -1071
332 -1565 702 -110 83 -193 152 -270 224 -27 25 -63 56 -78 69 -16 12 -85 83
-154 158 -376 409 -666 924 -788 1401 -73 282 -100 658 -70 955 39 389 108
648 275 1030 205 471 415 792 729 1117 549 568 1120 894 1801 1027 58 11 142
25 188 32 95 13 117 29 40 29 -119 0 -397 -58 -623 -130 -175 -56 -440 -173
-605 -268 -247 -142 -580 -409 -830 -668 -266 -275 -437 -519 -620 -884 -223
-445 -336 -794 -384 -1190 -19 -160 -20 -552 -1 -712 40 -343 113 -589 302
-1018 252 -573 380 -776 697 -1110 233 -246 391 -382 581 -500 348 -218 795
-380 1320 -479 233 -44 402 -62 655 -68 489 -12 911 72 1429 284 224 91 370
169 586 314 698 466 1206 1034 1422 1589 93 240 168 524 198 753 4 27 8 57 10
68 35 179 42 810 12 1014 -73 491 -215 897 -455 1295 -203 338 -415 605 -698
879 -406 394 -772 638 -1184 788 -441 161 -816 226 -1287 222 -106 -1 -193 -2
-195 -4z"/>
<path d="M4060 7337 c-30 -24 -82 -75 -115 -113 -104 -118 -125 -151 -88 -137
12 5 14 3 8 -8 -5 -8 -57 -90 -115 -184 -59 -93 -126 -204 -150 -245 -24 -41
-93 -151 -153 -244 -60 -93 -132 -212 -160 -265 -28 -53 -110 -189 -183 -302
-73 -113 -156 -252 -184 -309 -28 -56 -53 -100 -55 -98 -4 4 -14 550 -19 1048
-3 266 -8 355 -29 500 -1 8 3 15 8 15 6 1 91 4 190 9 194 8 248 14 240 26 -3
5 1 10 7 13 36 13 -88 19 -280 13 -120 -3 -325 -8 -457 -11 -265 -7 -285 -9
-285 -30 0 -19 -6 -18 176 -15 84 1 161 -1 173 -5 21 -6 30 -35 11 -35 -6 0
-10 -53 -10 -137 0 -76 -7 -187 -15 -248 -31 -222 -39 -348 -60 -870 -18 -473
-24 -572 -35 -642 -10 -58 -7 -74 10 -57 21 21 32 156 45 549 14 419 41 863
52 875 7 7 -4 -869 -11 -900 -11 -45 -7 -440 7 -720 14 -282 13 -341 -3 -540
-9 -107 -5 -186 16 -346 l6 -51 -248 -7 c-141 -4 -263 -12 -281 -19 -39 -13
-44 -42 -8 -51 48 -12 303 -23 473 -20 168 3 173 3 181 -18 8 -21 8 -21 22 -1
13 18 27 19 364 19 193 -1 376 3 408 7 50 7 57 11 57 31 0 12 5 27 11 33 21
21 -30 25 -177 14 -161 -13 -287 -14 -439 -4 l-107 6 6 264 c3 145 2 262 -2
260 -9 -6 -14 90 -14 293 -1 178 11 430 20 430 10 0 167 -93 217 -128 28 -19
67 -51 89 -71 63 -59 194 -227 285 -368 47 -72 121 -187 165 -253 108 -167
202 -292 335 -443 208 -235 406 -380 587 -428 105 -28 260 -30 369 -5 92 21
244 90 295 134 39 34 31 35 -50 6 -43 -15 -80 -19 -165 -18 -95 1 -123 5 -201
32 -109 36 -224 88 -224 99 0 5 13 66 29 137 16 71 27 140 25 153 -3 15 -1 22
6 18 6 -3 7 0 4 9 -3 9 -2 16 4 16 5 0 10 6 9 13 -1 34 4 58 11 53 4 -2 8 4 9
13 1 16 241 741 247 749 10 10 188 23 319 23 108 0 157 3 157 11 0 7 14 8 42
4 23 -4 119 -8 213 -10 93 -2 189 -4 212 -5 50 -1 50 -2 110 -186 49 -150 93
-254 175 -420 166 -332 299 -512 507 -683 117 -97 310 -182 414 -182 19 0 70
-8 113 -17 60 -13 129 -17 284 -18 194 0 210 1 305 28 125 35 231 87 290 141
25 23 45 45 45 49 0 3 -46 -16 -102 -43 -155 -75 -262 -104 -383 -104 -92 -1
-105 2 -166 30 -54 26 -79 47 -134 110 -508 594 -755 1012 -1215 2059 -162
367 -221 518 -293 745 -94 294 -259 901 -252 927 3 12 1 23 -5 23 -14 0 -43
-48 -35 -60 4 -6 1 -9 -5 -8 -16 4 -55 -94 -75 -187 -10 -46 -19 -151 -22
-250 l-6 -169 -38 -58 c-32 -51 -101 -215 -98 -236 1 -4 0 -9 -1 -12 -1 -3 -3
-12 -5 -20 -2 -8 -17 -49 -34 -90 -17 -41 -93 -239 -170 -440 -149 -388 -212
-576 -266 -785 -18 -71 -66 -215 -105 -320 -71 -189 -226 -677 -251 -788 -7
-32 -16 -60 -20 -63 -4 -2 -22 14 -40 37 -28 35 -30 41 -12 35 12 -4 -9 24
-51 66 -78 81 -234 278 -341 433 -38 55 -96 136 -128 179 -33 43 -82 111 -109
150 -27 39 -104 129 -171 201 -120 127 -100 126 31 -2 64 -63 92 -80 73 -45
-31 59 -172 175 -335 277 -124 77 -194 110 -316 150 -47 15 -86 29 -88 30 -4
3 97 163 318 505 62 96 151 238 198 315 46 77 119 190 161 250 91 131 212 318
331 510 47 77 116 187 153 246 62 98 77 129 60 129 -3 0 -15 -8 -25 -17 -18
-16 -18 -15 -3 20 17 40 20 81 6 73 -5 -4 -11 -2 -13 4 -1 5 -28 -10 -58 -33z
m1433 -1368 c36 -129 104 -327 186 -539 38 -96 71 -197 74 -225 6 -54 32 -118
79 -198 16 -27 27 -51 25 -53 -2 -2 -30 1 -63 6 -149 24 -327 33 -566 31 -142
-1 -258 -1 -258 1 0 17 206 642 311 943 l134 382 26 -126 c14 -69 38 -169 52
-222z m306 -844 c0 -5 -4 -3 -9 5 -5 8 -9 22 -9 30 0 16 17 -16 18 -35z m-479
-255 c0 -5 -8 -10 -17 -10 -15 0 -16 2 -3 10 19 12 20 12 20 0z m1650 -935
c35 -44 92 -114 128 -155 l64 -75 -67 70 c-61 62 -167 195 -190 235 -13 24 -2
11 65 -75z m135 -257 c53 -54 65 -68 34 -43 -40 32 -126 125 -117 125 2 0 39
-37 83 -82z"/>
<path d="M6695 7359 c-251 -11 -466 -77 -635 -197 -138 -98 -278 -267 -296
-361 -11 -56 15 -34 82 67 33 51 67 98 74 105 17 15 11 6 -44 -76 -33 -49 -46
-79 -46 -104 0 -47 20 -39 36 16 14 47 102 170 122 171 7 0 10 5 6 12 -4 7 -3
8 5 4 6 -4 30 8 54 27 129 106 319 202 476 242 93 24 118 27 225 23 99 -4 136
-10 201 -33 115 -40 165 -67 228 -125 140 -128 190 -303 143 -503 -27 -114
-58 -166 -129 -217 -34 -24 -104 -75 -154 -112 -51 -38 -145 -100 -208 -138
-279 -167 -416 -308 -482 -496 -31 -90 -37 -197 -14 -254 30 -73 97 -177 150
-233 98 -103 238 -156 466 -178 261 -24 526 23 775 138 105 49 156 89 139 109
-10 13 -14 12 -28 0 -9 -9 -55 -33 -101 -55 -211 -97 -411 -142 -638 -140 -76
0 -159 4 -187 8 -40 7 -29 8 55 8 63 -1 113 4 125 11 16 9 2 11 -75 11 -176
-1 -346 39 -442 104 -72 48 -115 111 -150 219 -12 37 -25 65 -29 62 -13 -8
-15 59 -3 107 30 123 172 300 320 398 106 71 375 207 359 181 -3 -6 1 -10 11
-10 20 0 179 153 239 230 93 121 121 218 113 399 -8 167 -49 264 -167 393 -29
31 -79 75 -112 97 -122 82 -217 100 -464 90z m-475 -170 c-52 -28 -108 -60
-125 -71 -27 -18 -27 -17 4 11 33 29 185 111 206 111 6 0 -33 -23 -85 -51z
m637 -2115 c-3 -3 -12 -4 -19 -1 -8 3 -5 6 6 6 11 1 17 -2 13 -5z"/>
</g>
</svg>
